<?xml version="1.0" encoding="utf-8"?>
<!-- Generator: Adobe Illustrator 20.1.0, SVG Export Plug-In . SVG Version: 6.00 Build 0)  -->
<svg version="1.1" id="Layer_1" xmlns="http://www.w3.org/2000/svg" xmlns:xlink="http://www.w3.org/1999/xlink" x="0px" y="0px"
	 viewBox="0 0 162 160" style="enable-background:new 0 0 162 160;" xml:space="preserve">
<style type="text/css">
	.st0{clip-path:url(#SVGID_2_);}
	.st1{opacity:0.79;clip-path:url(#SVGID_4_);}
	.st2{clip-path:url(#SVGID_6_);fill:#0764AB;}
	.st3{clip-path:url(#SVGID_4_);fill:#F7D20D;}
	.st4{clip-path:url(#SVGID_4_);fill:#FFFFFF;}
	.st5{fill:#0764AB;}
</style>
<g>
	<defs>
		<rect id="SVGID_1_" x="12" y="14.1" width="182.2" height="132.9"/>
	</defs>
	<clipPath id="SVGID_2_">
		<use xlink:href="#SVGID_1_"  style="overflow:visible;"/>
	</clipPath>
	<g class="st0">
		<defs>
			<rect id="SVGID_3_" x="12" y="14.1" width="182.2" height="132.9"/>
		</defs>
		<clipPath id="SVGID_4_">
			<use xlink:href="#SVGID_3_"  style="overflow:visible;"/>
		</clipPath>
		<g class="st1">
			<g>
				<defs>
					<rect id="SVGID_5_" x="-5.7" y="-9.3" width="174.1" height="177.8"/>
				</defs>
				<clipPath id="SVGID_6_">
					<use xlink:href="#SVGID_5_"  style="overflow:visible;"/>
				</clipPath>
				<path class="st2" d="M131.7,115c10.7-15.4,14.4-35.2,8.2-54.1c-10.8-32.7-46.9-50.4-80.8-39.5C25.2,32.2,6.5,67.5,17.2,100.2
					c10.3,31.4,44.1,48.9,76.7,40.7l-9.4-29.3l28.6-9.2L131.7,115z"/>
			</g>
		</g>
		<path class="st3" d="M132.2,39.6c-12.3-15.5-31.5-25.5-53-25.5C42.1,14.1,12,43.8,12,80.5c0,36.7,30.1,66.5,67.3,66.5
			c35.7,0,64.8-27.4,67.1-62.1l-33.2-0.2l0-31L132.2,39.6z"/>
		<path class="st4" d="M79,125.3c24.7,0,44.7-19.8,44.7-44.1c0-24.4-20-44.1-44.7-44.1S34.3,56.8,34.3,81.2
			C34.3,105.6,54.3,125.3,79,125.3"/>
	</g>
	<g class="st0">
		<path class="st5" d="M102.1,58.4l1.1,1.6c-4.5,3.4-9.5,8.6-15,15.6c-5.5,7-9.7,13.6-12.6,19.7l-2.3,1.6c-1.9,1.3-3.2,2.3-3.9,3
			c-0.3-1-0.9-2.6-1.8-4.8l-0.9-2c-1.3-2.9-2.4-5.1-3.5-6.5c-1.1-1.4-2.3-2.3-3.6-2.8c2.3-2.4,4.3-3.6,6.2-3.6
			c1.6,0,3.4,2.2,5.4,6.6l1,2.2c3.5-6,8.1-11.8,13.7-17.4C91.4,65.8,96.8,61.5,102.1,58.4z"/>
	</g>
</g>
</svg>
