<svg xmlns="http://www.w3.org/2000/svg" width="761" height="306" viewBox="0 0 761 306">
  <g fill="none" fill-rule="evenodd">
    <g fill-rule="nonzero" transform="translate(68.102 69.103)">
      <g transform="translate(11.458)">
        <path fill="#F1A4A2" d="M47.0439978,148.482576 C47.2669439,148.274147 47.4808193,148.056113 47.6832371,147.827754 C47.6746439,147.828234 47.665812,147.828714 47.6572188,147.829194 C47.4185185,148.056593 47.1779087,148.281351 46.9356279,148.502746 C46.9719104,148.496023 47.0079541,148.489299 47.0439978,148.482576 Z"/>
        <path fill="#F15D5D" d="M47.0439978,148.482576 C47.2669439,148.274147 47.4808193,148.056113 47.6832371,147.827754 C47.6746439,147.828234 47.665812,147.828714 47.6572188,147.829194 C47.4185185,148.056593 47.1779087,148.281351 46.9356279,148.502746 C46.9719104,148.496023 47.0079541,148.489299 47.0439978,148.482576 Z"/>
        <path fill="#6E6E93" d="M27.6973435,163.936814 C27.442889,163.848928 26.6449141,163.630414 25.9240394,163.451761 C23.432725,162.833678 20.6745438,161.427503 18.0600601,159.441905 C9.73109263,153.116758 3.56212366,141.065579 1.19063679,126.487318 C0.312936013,121.092658 0.192153692,119.39209 0.165657966,112.080988 C0.152052052,108.330467 0.180696081,104.959345 0.229390929,104.589552 C0.277847078,104.219759 0.42966043,102.880098 0.566674367,101.612235 C1.05672596,97.0753039 2.05878956,91.8926748 3.57549088,86.0509012 C4.0963348,84.0448926 4.64558405,82.0146313 4.7962039,81.5391828 C4.94682375,81.0637342 5.26095326,80.0266321 5.49416339,79.2342179 C7.66203896,71.8710089 12.3231385,59.6932833 15.7869177,52.3423208 C19.5020482,44.4580394 25.3697775,34.0802947 30.3948949,26.5067358 C30.9556018,25.661494 32.1025564,23.9328303 32.9434973,22.6649676 C35.2722569,19.1540924 39.4151382,13.2827833 41.854416,10.0362862 C44.9305459,5.941906 49.2226149,0.48241217 49.5221837,0.282867863 C49.6964349,0.166647111 49.9229614,0.244928031 50.2576192,0.537160789 C51.156803,1.32237124 51.358266,0.882461287 47.4664973,6.6231421 C46.2121275,8.47330923 44.8820898,10.4267303 44.5109109,10.9641313 C41.4844306,15.3447411 33.3027412,28.5514046 29.5272195,35.1505341 C15.1982829,60.1956259 8.03727574,80.5121659 8.03727574,96.1203247 C8.03727574,98.3155522 8.32419342,101.794011 8.66434126,103.7251 C9.73109263,109.779625 12.4412951,115.3174 16.2650343,119.255218 C20.7673982,123.892042 24.8336567,126.536784 29.3551167,127.769349 C31.1974051,128.271451 35.9869254,128.263767 37.7198891,127.755901 C40.6031493,126.9109 43.7776238,125.195443 46.170355,123.189434 C48.9251944,120.879907 52.557496,116.550204 54.1544006,113.67278 L54.9633557,112.215218 L54.7814661,109.218692 C54.2124047,99.837948 52.0710249,92.4533679 48.0723185,86.0821175 C45.3563872,81.7543352 40.7702395,77.4116652 36.9732348,75.5718235 C35.756341,74.9820752 35.4586818,74.6247684 35.7444059,74.096012 C35.9621006,73.6930814 38.2767768,69.007272 40.0381458,65.4041886 C40.7353892,63.977843 41.9840302,61.4279501 42.8130361,59.7377065 C43.642042,58.047463 44.9911758,55.281217 45.8111111,53.5909735 C51.3448987,42.1821297 51.256341,42.3540596 51.6067529,42.3540596 C51.927566,42.3540596 54.4394086,45.0576329 55.9045507,46.9795975 C61.1896127,53.9122614 65.0921229,64.9097701 66.7033495,77.4097442 C66.8394086,78.4662965 67.0351428,79.8924019 67.1382613,80.5791609 C67.4079926,82.3779412 67.389374,91.5766696 67.112243,93.4489283 C66.0185185,100.83711 63.8007546,108.095144 60.5441672,114.942804 C59.6989297,116.719973 59.5645415,117.188458 59.2437283,119.476614 C58.3588666,125.784711 57.9518827,128.051976 56.9677216,132.154281 C53.6538462,145.967261 48.3527913,155.407076 40.9583353,160.662223 C38.8362901,162.170211 37.2090706,162.875219 33.3617002,163.952422 C32.5706476,164.173578 28.3489951,164.162292 27.6973435,163.936814 L27.6973435,163.936814 Z M34.0964195,151.001252 C37.8380457,150.045313 40.904389,147.990559 44.2738816,144.182168 C47.5075537,140.527217 50.7323939,134.471732 52.6680142,128.419849 C53.4478478,125.982094 53.4762532,125.810405 53.1282282,125.643998 C52.8059829,125.489837 52.4488873,125.746291 51.1474936,127.066981 C49.3402941,128.90082 47.0136829,130.501977 44.2836683,131.79049 C43.2746824,132.2669 40.5642412,133.267022 39.724255,133.47305 C39.4698006,133.535483 38.7969046,133.712455 38.228798,133.866376 C34.8108493,134.79254 30.5939709,134.762524 27.5429044,133.790736 C24.6350581,132.864572 22.1246477,131.538359 19.4884423,129.535712 C15.4885424,126.497164 10.9238777,120.905841 8.09217679,115.576015 C7.62599523,114.698836 7.06791407,113.880729 6.85189035,113.758024 C6.28330638,113.435296 5.87847078,114.101884 5.87847078,115.360622 C5.87847078,117.975589 6.88220528,123.94703 7.98643259,127.899977 C10.4798953,136.826643 14.9555248,144.168241 20.2584893,148.03042 C24.4300146,151.068488 29.5401093,152.165621 34.0964195,151.001252 L34.0964195,151.001252 Z M59.8645877,94.9441899 C60.0691538,94.4677809 59.9581582,88.422861 59.6850851,85.1888505 C59.3093709,80.7369234 58.2929853,76.175499 56.8330946,72.3899202 C55.8823516,69.9247916 53.4879495,65.3566437 52.6878263,64.4813862 C52.2087549,63.9571922 52.08845,63.9082066 51.6986525,64.0774951 C50.4805652,64.6064916 48.8989374,67.7655829 48.8989374,69.669298 C48.8989374,70.3925561 49.0562409,70.7537049 50.9467467,74.369515 C53.0069685,78.3102149 53.7868022,79.9922942 54.8301609,82.7482147 C56.2346731,86.4574337 57.6871641,92.206759 57.6876415,94.0588471 C57.6878802,95.0294345 58.0091707,95.3692121 58.9269731,95.3692121 C59.5483098,95.3694522 59.7142065,95.2942929 59.8645877,94.9441899 Z M51.2840302,34.3369889 C51.1964272,34.2563067 50.8636791,33.7412375 50.5447755,33.1923105 C48.5186879,29.7068886 44.6708401,24.0687414 41.8453453,20.4454874 C40.9757604,19.3303445 40.264195,18.313653 40.264195,18.1856661 C40.264195,18.0579194 40.5802341,17.4576056 40.9664511,16.8515288 C41.3526681,16.2454519 41.994533,15.2366846 42.392685,14.609957 C42.790837,13.9829893 43.463733,12.9816659 43.8876646,12.3847138 C44.3115962,11.7877618 45.3709479,10.2694481 46.2417263,9.01071014 C47.1125048,7.75197217 48.552106,5.69193533 49.4412643,4.43295723 C50.3304227,3.17397913 51.0577424,2.07204311 51.0577424,1.98391705 C51.0577424,1.89579098 51.1792408,1.83071697 51.3274736,1.83912136 C51.7124971,1.86097278 55.9639871,7.78414899 59.051336,12.5996262 C62.779595,18.4152261 62.7258874,18.3141333 62.2721183,18.6697592 C61.9849619,18.8949969 60.042658,21.7001433 57.8423192,25.0679037 C53.3659737,31.919165 51.5088858,34.5439771 51.2840302,34.3369889 L51.2840302,34.3369889 Z"/>
        <path fill="#FC0202" d="M47.0439978,148.482576 C47.2669439,148.274147 47.4808193,148.056113 47.6832371,147.827754 C47.6746439,147.828234 47.665812,147.828714 47.6572188,147.829194 C47.4185185,148.056593 47.1779087,148.281351 46.9356279,148.502746 C46.9719104,148.496023 47.0079541,148.489299 47.0439978,148.482576 Z"/>
        <path fill="#181765" d="M26.3095403,163.075004 C21.2607916,161.745669 16.8617849,158.695354 12.8110418,153.715151 C9.15439285,149.219521 6.46113806,144.08972 4.21377531,137.340031 C2.63429583,132.596112 1.42026642,126.743052 0.765989066,120.719023 C0.534927235,118.591751 0.532540233,105.08325 0.762647263,102.764598 C1.64201894,93.9082884 4.48422268,82.3779412 8.69346269,70.5901794 C15.4104874,51.7799468 22.8615154,37.7611788 37.0240779,17.2863961 C39.3805267,13.8797353 43.4704166,8.39935057 46.8253484,4.15249062 C49.1455147,1.21575551 49.6680296,0.644256771 49.9358512,0.75039225 C50.1129668,0.820508902 50.2958112,1.00060304 50.342119,1.15092162 C50.393917,1.31900948 49.0483637,3.47533665 46.8406252,6.76217477 C43.0956572,12.337169 40.8521137,15.7748059 38.4526989,19.6148932 C37.6685686,20.8697892 36.56458,22.6311099 35.9993378,23.5291793 C29.9678602,33.1106678 22.6875029,46.3857671 18.986217,54.5509953 C18.3636868,55.9245133 17.6148841,57.5667317 17.3222376,58.2006631 C16.3667206,60.2710253 13.6763302,67.1640685 12.6737892,70.1099284 C11.1685455,74.5332806 9.93804574,78.9907306 9.2007007,82.6915451 C8.59106029,85.7512245 8.38673289,87.091365 7.89190729,91.2762726 C7.61238931,93.6405485 7.68781859,98.9912654 8.03894664,101.708046 C8.36978517,104.266823 9.14198044,107.610331 9.86619697,109.621622 C10.4627089,111.278248 11.9056518,114.154232 12.8664203,115.601948 C16.8968738,121.675683 24.2681759,127.161831 29.9325325,128.303388 C31.8168322,128.683266 35.3526989,128.686868 37.083753,128.310591 C42.1726034,127.205054 47.4633942,123.421396 51.7218064,117.842319 C53.2320628,115.863685 54.9960576,113.106564 55.2163779,112.380184 C55.3595981,111.908338 55.0161084,106.564344 54.6826442,104.073762 C53.9235774,98.4048789 52.2488565,92.903123 49.9418187,88.4997012 C47.753415,84.3224777 44.222561,80.0782591 40.7828906,77.4899461 C39.4834065,76.512155 36.7338184,74.8159083 36.4483329,74.8159083 C36.3626396,74.8159083 36.2167937,74.7025691 36.1246554,74.5642568 C35.9995765,74.3764786 36.0499422,74.1447575 36.3237314,73.6517798 C36.5254331,73.2884699 37.4709248,71.3919585 38.4247709,69.4375769 C39.3786171,67.4831953 41.1077616,63.9391828 42.2671287,61.5621802 C51.6205975,42.3867167 51.2950104,43.0367365 51.5793024,42.9646988 C52.1416801,42.8223044 55.8460691,47.2113186 57.7105567,50.2292162 C62.2281974,57.5412784 65.5645107,68.6823822 66.7128975,80.29053 C66.7756757,80.9244614 66.8556403,81.7024681 66.8909679,82.0191937 C66.9260568,82.3361594 66.9909833,84.4250113 67.0351428,86.6610601 C67.1053207,90.228605 67.0750058,91.0171772 66.7878494,93.0959438 C65.7487872,100.617395 63.4878186,107.962835 59.9552938,115.293867 C59.2685532,116.719012 59.1527836,117.210069 58.7656118,120.340105 C58.0881805,125.816648 56.598691,132.875378 55.117556,137.627942 C51.1553708,150.341628 44.7266959,159.137666 37.1026103,162.277307 C34.7721799,163.236848 33.0552091,163.561258 30.4166166,163.540367 C28.5268268,163.525719 27.6391006,163.424867 26.3095403,163.075004 L26.3095403,163.075004 Z M34.0964195,151.453169 C36.1389774,150.918409 36.8510203,150.611289 38.8465542,149.403697 C42.87844,146.963782 46.839193,142.241233 49.7914376,136.354076 C51.4630554,133.020413 53.7435974,126.780272 53.652414,125.788553 C53.6082544,125.308542 53.5304381,125.231222 53.0396704,125.180315 C52.5634635,125.130849 52.3510203,125.254994 51.6518673,125.990259 C47.8324247,130.008279 42.8884654,132.486134 36.1167783,133.777049 C33.5693694,134.262583 32.0684223,134.268826 29.7788096,133.803223 C25.4182336,132.916679 22.1327635,131.277582 18.4455609,128.148987 C15.0600755,125.276605 11.1413336,120.373002 8.89015169,116.191697 C8.38386848,115.251365 7.76300916,114.201056 7.51070301,113.857677 C6.92493262,113.0607 6.34202664,113.026602 5.87154847,113.761626 C5.55718026,114.252923 5.53975514,114.430616 5.62210672,116.306717 C5.81593132,120.723345 7.12854393,126.901535 8.94815585,131.9617 C10.5837299,136.510158 12.528182,140.14998 15.0378763,143.361179 C18.1865712,147.390005 21.7584816,150.015537 25.6502503,151.161896 C27.8212289,151.801351 27.7219296,151.787423 30.3182721,151.813357 C32.0942019,151.831126 32.971664,151.747563 34.0964195,151.453169 L34.0964195,151.453169 Z M60.0832371,95.290691 C60.5735274,94.3585238 60.2352891,85.1403452 59.5595288,81.0245938 C58.9751906,77.4652132 58.2676831,74.907156 56.9853854,71.7192496 C56.0422807,69.3744239 54.0749134,65.6303868 53.0871718,64.2996112 C52.4054439,63.3813712 52.0929853,63.3074125 51.2250712,63.8589808 C50.2074921,64.5056389 49.3391006,66.0750993 48.7499884,68.3322791 C48.3169862,69.9913064 48.3874028,70.2691316 50.0184415,73.340337 C53.9949488,80.8274507 55.8498883,85.681348 57.0056749,91.6239744 C57.2111958,92.6805266 57.3794795,93.8689078 57.3794795,94.2651149 C57.3797182,95.3605676 57.7862247,95.7538932 58.9181412,95.7538932 C59.7218449,95.753653 59.8710326,95.694342 60.0832371,95.290691 Z"/>
        <path fill="#01014B" d="M47.0439978,148.482576 C47.2669439,148.274147 47.4808193,148.056113 47.6832371,147.827754 C47.6746439,147.828234 47.665812,147.828714 47.6572188,147.829194 C47.4185185,148.056593 47.1779087,148.281351 46.9356279,148.502746 C46.9719104,148.496023 47.0079541,148.489299 47.0439978,148.482576 Z"/>
      </g>
      <g transform="translate(50.843 1.2)">
        <path fill="#F1A4A2" d="M23.3062139,16.1738945 C23.1746901,16.0379835 22.503465,15.011687 21.8145761,13.8934225 C20.0088088,10.9622102 18.8153076,9.17015349 16.4569493,5.85017805 C15.3095172,4.2350938 13.8971279,2.24685449 13.3182798,1.4321086 C13.0416262,1.04262501 12.7606761,0.689400368 12.5193501,0.414696773 C12.4470239,0.40148987 12.3806653,0.377957569 12.3186032,0.34842213 C12.3073843,0.344820247 12.2983137,0.337376356 12.2873335,0.333294222 C12.2472318,0.325610205 12.2090398,0.314804557 12.1720413,0.301837779 C12.0832448,0.289831503 12.0049511,0.260296064 11.930954,0.22403711 C11.8634019,0.216112968 11.800385,0.200024558 11.7411873,0.17793301 C11.6258951,0.20314619 11.5108416,0.231961252 11.3991299,0.275664097 C11.3437514,0.296074766 11.2890891,0.319366942 11.2346654,0.343859745 C11.2210595,0.352024013 11.205544,0.361148782 11.1838223,0.37411556 C11.150643,0.396447234 11.1172249,0.419499284 11.0842843,0.442791459 C10.9709017,0.637533256 10.843197,0.818107647 10.6973512,0.986435637 C10.1428505,1.95558224 9.53082313,2.86805921 8.88704859,3.74715874 C8.86604297,4.22909066 8.64405174,4.69325329 8.22107492,4.83036496 C8.20961731,4.83588785 8.1993532,4.84333174 8.18741819,4.84837438 C8.1038731,5.04599768 7.97760068,5.21432567 7.804543,5.31805989 C7.74749365,5.65255474 7.58899669,5.95535303 7.32857473,6.11455625 C7.27057057,6.52108875 7.06576577,6.88896105 6.71153461,7.02078996 C6.63276353,7.15742138 6.52964503,7.27292175 6.4007469,7.35264343 C6.35348425,7.75725493 6.16395626,8.13089024 5.82667283,8.28192919 C5.77845538,8.49540078 5.68942019,8.6923037 5.55527066,8.84046115 C5.47363517,9.07674466 5.33685994,9.28085135 5.13802264,9.39995361 C5.0988758,9.4535016 5.05590976,9.50344771 5.00745361,9.5466703 C4.95995226,9.72172181 4.88523909,9.88404666 4.77782398,10.0127539 C4.70955571,10.2487973 4.58638639,10.4572263 4.40736121,10.5924169 C4.3047201,10.8438284 4.13261723,11.0488956 3.88890429,11.1411038 C3.87434357,11.1850467 3.85978286,11.2292298 3.84116424,11.2705314 C3.78578579,11.4532669 3.6967506,11.617993 3.57429737,11.7442991 C3.50626781,12.0276472 3.36304766,12.2780981 3.14201124,12.4231339 C3.04104104,12.654855 2.87944098,12.8435937 2.65506276,12.9350815 C2.65005005,13.3850767 2.47197967,13.83123 2.11703242,14.020689 C2.08576269,14.0773586 2.05162855,14.131627 2.01104951,14.179412 C1.92941403,14.4562767 1.77425887,14.6949615 1.53985524,14.8205471 C1.43434973,15.2064288 1.24458304,15.5286773 0.999437899,15.7988185 C0.993470393,15.8129859 0.99012859,15.828594 0.983683684,15.8425213 C0.938808039,15.9383314 0.882236082,16.0185333 0.821367521,16.0917716 C0.72015862,16.3482257 0.587918688,16.570822 0.366404866,16.7153776 C0.312936013,16.7501958 0.255647956,16.7782905 0.196927697,16.8027833 C0.304104104,16.9485395 0.392423192,17.0998185 0.464988065,17.2554199 C0.541133441,17.3356218 0.604627705,17.4307115 0.654277354,17.5361266 C0.817787018,17.6648339 0.935227535,17.8511713 1.0034958,18.0682448 C1.08823439,18.139562 1.16008316,18.2272079 1.21784862,18.3271001 C1.32932163,18.4389986 1.41477631,18.581393 1.47206437,18.742037 C1.49378609,18.7847793 1.51383691,18.8289624 1.53102333,18.8748264 C1.65586356,18.9884058 1.81483791,19.1716215 2.04613845,19.4513678 C3.98486178,21.7985947 9.1037884,29.3411774 10.9744822,32.6071246 C11.395072,33.3414285 11.8013398,33.8536162 11.9629399,33.8536162 C12.3513052,33.8536162 13.5369292,32.1715369 19.1246631,23.6943857 C21.3734581,20.2824422 22.9316932,18.0451927 23.2606222,17.7556013 C23.6088858,17.448961 23.6360976,16.5148728 23.3062139,16.1738945 Z"/>
        <path fill="#F15D5D" d="M19.8565181,11.2052173 C17.0054824,6.74776724 12.994841,1.17013166 12.0242858,0.266539327 C11.9870486,0.2540528 11.9512436,0.239405144 11.9171094,0.222116106 C11.85457,0.213711713 11.7963271,0.19834368 11.7409486,0.17793301 C11.6256564,0.20314619 11.5106029,0.231961252 11.3988912,0.275664097 C11.3435127,0.296074766 11.2888504,0.319366942 11.2344267,0.343859745 C11.2208208,0.352024013 11.2053053,0.361148782 11.1835836,0.37411556 C11.1504043,0.396447234 11.1169862,0.419499284 11.0840456,0.442791459 C10.970663,0.637533256 10.8429583,0.818107647 10.6971125,0.986435637 C10.1426118,1.95558224 9.53058443,2.86805921 8.88680989,3.74715874 C8.86580427,4.22909066 8.64381304,4.69325329 8.22083622,4.83036496 C8.20937861,4.83588785 8.1991145,4.84333174 8.18717949,4.84837438 C8.1036344,5.04599768 7.97736198,5.21432567 7.8043043,5.31805989 C7.74725495,5.65255474 7.58875799,5.95535303 7.32833603,6.11455625 C7.27033187,6.52108875 7.06552707,6.88896105 6.71129591,7.02078996 C6.63252483,7.15742138 6.52940633,7.27292175 6.4005082,7.35264343 C6.35324555,7.75725493 6.16371756,8.13089024 5.82643413,8.28192919 C5.77821668,8.49540078 5.68918149,8.6923037 5.55503196,8.84046115 C5.47339647,9.07674466 5.33662124,9.28085135 5.13778394,9.39995361 C5.0986371,9.4535016 5.05567106,9.50344771 5.00721491,9.5466703 C4.95971356,9.72172181 4.88500039,9.88404666 4.77758528,10.0127539 C4.70931701,10.2487973 4.58614769,10.4572263 4.40712251,10.5924169 C4.3044814,10.8438284 4.13237853,11.0488956 3.88866559,11.1411038 C3.87410487,11.1850467 3.85954416,11.2292298 3.84092554,11.2705314 C3.78554709,11.4532669 3.6965119,11.617993 3.57405867,11.7442991 C3.50602911,12.0276472 3.36280896,12.2780981 3.14177254,12.4231339 C3.04080234,12.654855 2.87920228,12.8435937 2.65482405,12.9350815 C2.64981135,13.3850767 2.47174097,13.83123 2.11679372,14.020689 C2.08552399,14.0773586 2.05138985,14.131627 2.01081081,14.179412 C1.92917533,14.4562767 1.77402017,14.6949615 1.53961654,14.8205471 C1.43411103,15.2064288 1.24434434,15.5286773 0.999199199,15.7988185 C0.993231693,15.8129859 0.98988989,15.828594 0.983444983,15.8425213 C0.938569339,15.9383314 0.881997382,16.0185333 0.821128821,16.0917716 C0.71991992,16.3482257 0.587679988,16.570822 0.366166166,16.7153776 C0.312697313,16.7501958 0.255170555,16.7782905 0.196450296,16.8030234 C0.263763764,16.8954717 0.324393624,16.9898411 0.378101178,17.0861314 L0.462362362,16.9521413 L0.892500193,17.6713173 C1.12905213,18.066804 1.56491876,18.6270168 1.86090706,18.916128 C2.82501733,19.8576601 7.14883345,26.0478559 9.61126511,30.0116079 C10.4973204,31.4379535 11.3922076,32.8640589 11.5998768,33.1810246 L11.9775006,33.7573259 L12.992454,32.412623 C13.5507739,31.6730364 15.5116963,28.7845665 17.3501656,25.9935876 C19.1886348,23.2026086 21.2999384,20.0756941 22.0420574,19.0448353 C22.7841765,18.0139764 23.3911912,17.0798881 23.3911912,16.9694304 C23.3911912,16.7588403 22.9799107,16.0881697 19.8565181,11.2052173 Z M11.2867021,0.815226141 C11.1332178,1.0265366 10.9728113,1.19942697 10.9305613,1.19942697 C10.8880727,1.19942697 10.9790175,1.0265366 11.1325017,0.815226141 C11.285986,0.603915683 11.4463925,0.431025309 11.4886425,0.431025309 C11.5311311,0.431025309 11.4401863,0.603915683 11.2867021,0.815226141 Z"/>
        <path fill="#FC0202" d="M6.85618696,7.81008254 C5.98564719,9.06882052 4.92629553,10.5873743 4.5021252,11.1840862 C4.07819358,11.7810383 3.40529761,12.7823617 3.00714561,13.4093294 C2.60899361,14.0362972 1.96712867,15.0450645 1.58091168,15.6509012 C1.19469469,16.256978 0.878655579,16.8572918 0.878655579,16.9850385 C0.878655579,17.1127853 1.59022099,18.1297169 2.45980596,19.2448598 C5.28530069,22.8681138 9.13338723,28.506261 11.1592362,31.9916829 C11.4781397,32.5406099 11.8108878,33.0556791 11.8984908,33.1363613 L11.8984908,33.1363613 C12.1233464,33.3433495 13.9804343,30.7187775 18.4567799,23.8672761 C20.6573574,20.4992755 22.5994225,17.6943693 22.8865789,17.4691316 C23.340348,17.1135057 23.3938169,17.2145985 19.6657966,11.3989986 C16.5786864,6.58328126 12.3271964,0.66034518 11.9419342,0.638493758 C11.7934627,0.630089365 11.672203,0.695163381 11.672203,0.783289447 C11.672203,0.871415513 10.9446446,1.97335152 10.055725,3.23232963 C9.16656657,4.49130773 7.72672673,6.55110444 6.85618696,7.81008254 Z"/>
      </g>
      <g fill="#000" transform="translate(.136 19.828)">
        <path d="M6.13626704,106.992488 C6.18018788,107.514281 6.2033418,107.775297 6.25203665,108.29709 C6.32102102,109.037397 6.06059906,109.594248 5.46432586,109.975087 C5.78704859,110.169108 5.99400169,110.59317 6.06656657,111.234305 C6.19260029,112.349208 5.49201509,113.190368 4.43958574,113.357495 C3.3031339,113.537829 2.47675368,112.934874 2.33448833,111.668932 C2.32684993,111.670133 2.22349272,110.816487 2.06069916,109.108954 C3.02576423,108.993214 3.50817741,108.935103 4.47324247,108.819363 C4.97880958,108.758611 5.22323862,108.408028 5.16690537,107.773376 C5.14303534,107.504436 5.13133903,107.370205 5.10890121,107.101265 C5.51970432,107.057802 5.72522523,107.035951 6.13626704,106.992488 Z M1.58473088,111.490999 C1.63772234,111.96957 1.66517287,112.208975 1.72198352,112.687305 C1.36775237,112.740372 1.19063679,112.766786 0.836405636,112.819614 C0.779117579,112.337442 0.751667052,112.096596 0.698198198,111.614424 C1.05290675,111.564958 1.23026103,111.540225 1.58473088,111.490999 Z M3.9963194,110.253392 C3.59243859,110.3067 3.39049819,110.333114 2.98661739,110.386422 C3.02337722,110.737005 3.04223454,110.912297 3.08090398,111.26312 C3.14081774,111.806284 3.66930007,112.135496 4.26509587,112.04761 C4.7995457,111.968849 5.1984138,111.529179 5.14040964,111.004745 C5.07906368,110.452457 4.62362362,110.170789 3.9963194,110.253392 Z M1.3952029,109.677091 C1.44222684,110.155661 1.46681297,110.394826 1.51789482,110.873397 C1.16294756,110.920941 0.985593286,110.944714 0.630646031,110.992499 C0.579325479,110.510327 0.554500655,110.269481 0.506999307,109.787309 C0.862423962,109.743126 1.04001694,109.721034 1.3952029,109.677091 Z"/>
        <path d="M5.76341726,101.174727 C5.77654578,101.474163 5.78370678,101.623762 5.7982675,101.923438 C5.84242704,102.820067 5.7958805,103.593511 5.64621545,104.258419 C5.88038038,104.89163 6.02670363,105.650426 6.0995072,106.547775 C6.12671903,106.884672 6.14104104,107.053 6.17016247,107.389896 C5.75935936,107.434799 5.55383845,107.457371 5.14279664,107.502274 C5.11319781,107.162497 5.0991145,106.992488 5.07142527,106.65271 C5.03824594,106.242096 4.9962347,105.992365 4.95016555,105.893193 C4.6045276,106.330702 4.1994533,106.580673 3.73923924,106.627017 C3.54756295,106.646227 3.34490644,106.628458 3.14726265,106.571788 C2.37888658,106.342468 1.84777855,105.58103 1.78213598,104.575144 C1.71529992,103.550048 2.14328944,102.722096 2.87418957,102.380397 C3.06252406,102.292031 3.26064526,102.241845 3.45279895,102.229598 C3.91420651,102.200303 4.34720875,102.380877 4.74583815,102.756434 C4.77806268,102.641894 4.78737199,102.388321 4.76755987,101.987312 C4.75276045,101.685234 4.74559945,101.534195 4.73223223,101.231877 C5.14494494,101.209065 5.35094325,101.197539 5.76341726,101.174727 Z M1.13430353,104.937974 C1.16628937,105.415824 1.18347578,105.654749 1.21928082,106.132839 C0.866243166,106.166216 0.68960499,106.182785 0.336567337,106.216162 C0.300523601,105.73471 0.283337183,105.494105 0.250873951,105.012653 C0.604150304,104.982877 0.780788481,104.96799 1.13430353,104.937974 Z M4.35723416,103.902313 C4.11948872,103.55365 3.81729422,103.396128 3.44062524,103.423742 C2.95654116,103.459281 2.57820128,103.869175 2.61949642,104.506468 C2.64002464,104.820312 2.75006545,105.075806 2.93959344,105.243894 C3.10620621,105.391331 3.33344883,105.456645 3.57143297,105.435034 C3.94762455,105.400936 4.22618773,105.195629 4.41643182,104.811428 C4.498306,104.653665 4.56514207,104.497344 4.61694002,104.342703 C4.54556865,104.197907 4.45915916,104.054312 4.35723416,103.902313 Z M1.02306922,103.117582 C1.04932625,103.595192 1.06340956,103.834117 1.09372449,104.311727 C0.74020944,104.339821 0.563571264,104.353749 0.21005621,104.381843 C0.17974128,103.900632 0.165419265,103.660026 0.138923539,103.178814 C0.492438592,103.154322 0.669315469,103.142075 1.02306922,103.117582 Z"/>
        <path d="M7.01253561,100.436101 C7.03043813,100.889218 7.04022484,101.115896 7.06170786,101.569253 C6.704851,101.590384 6.52630323,101.60119 6.16944637,101.622321 C6.14772465,101.165362 6.13793794,100.937003 6.11979672,100.480284 C6.47689228,100.462755 6.65544006,100.45387 7.01253561,100.436101 Z M5.64358974,97.2770093 C5.67247247,98.9377174 5.6987295,99.7692721 5.77487487,101.432862 C5.36263956,101.456634 5.15640256,101.46864 4.74416724,101.492413 C4.72841303,101.149273 4.72101332,100.977824 4.70740741,100.634684 C4.68998229,100.196696 4.43648264,99.9933092 3.94380534,100.015401 C3.25730346,100.046137 2.91405251,100.061505 2.22755063,100.092241 C2.20845461,99.5555604 2.2001001,99.2873402 2.18577809,98.7511399 C2.85724186,98.7285681 3.19285439,98.7172822 3.86407946,98.6949505 C4.14884885,98.6853455 4.4042581,98.7237656 4.64582275,98.8178948 C4.62911373,98.2106174 4.62219142,97.9070987 4.61168861,97.3000614 C5.02440132,97.2906965 5.23087703,97.2861341 5.64358974,97.2770093 Z M6.95500886,98.718723 C6.96742127,99.1715997 6.97458227,99.3982782 6.99057519,99.851395 C6.63347963,99.8672433 6.45493185,99.8751675 6.0978363,99.8912559 C6.08160468,99.4345371 6.07444367,99.2064179 6.06179256,98.7499393 C6.41912682,98.7374528 6.5979133,98.7312095 6.95500886,98.718723 Z"/>
        <path d="M3.89033649 92.0028924C4.41404481 92.0151388 4.83320243 92.2247684 5.15138985 92.6144921 5.46528067 92.998693 5.62497112 93.5159233 5.62258412 94.1512954 5.61733272 95.4739068 5.62210672 96.1359329 5.64693155 97.4609455 5.23421883 97.4705505 5.02774313 97.475353 4.61503042 97.4851982 4.60500501 96.9525998 4.6014245 96.6865407 4.5961731 96.1544225 4.37394317 96.2593574 4.13548164 96.3095436 3.88150458 96.3129054 2.81093401 96.3270728 2.12085162 95.5094454 2.12562563 94.1904359 2.12801263 93.5262487 2.29271579 92.9864466 2.6020713 92.5866376 2.90880111 92.1906706 3.34371294 91.9901658 3.89033649 92.0028924zM1.54701625 94.5218091C1.54630015 94.9948564 1.54701625 95.23138 1.54988065 95.7044273 1.1956495 95.7073088 1.01853392 95.7087496.664064064 95.7116311.660960961 95.2349819.66048356 94.9965373.660960961 94.5201282 1.01543082 94.5208486 1.19254639 94.5210888 1.54701625 94.5218091zM3.9029876 93.3017314C3.29454069 93.2942875 2.99067529 93.5730732 2.98828829 94.1287237 2.98804959 94.1664234 2.98804959 94.1851531 2.98804959 94.2228529 2.98709479 94.4865107 3.07994918 94.6968606 3.27210287 94.8442977 3.43179333 94.9667617 3.63444983 95.0315956 3.85787326 95.0308752 4.11208901 95.0301549 4.31211981 94.9636401 4.47371987 94.8246074 4.65775776 94.6661246 4.75085085 94.4437683 4.75204435 94.156098 4.75299915 93.8871574 4.66969277 93.6700839 4.49424809 93.5132819 4.33622854 93.3720881 4.14168784 93.3046129 3.9029876 93.3017314zM1.56014476 92.7203875C1.55393855 93.1929545 1.55155155 93.429238 1.54892585 93.9020452 1.19469469 93.8996439 1.01757912 93.8984433.663109263 93.8958019.665734966 93.4193929.667883268 93.1814285.674328174 92.7054997 1.02879803 92.7115028 1.20591361 92.7146245 1.56014476 92.7203875zM5.84982675 86.5642895C5.74670825 88.4062924 5.70970971 89.329575 5.66459536 91.1790218 5.25188265 91.1662951 5.04564565 91.1600518 4.63293293 91.1473252 4.66563487 89.8009414 4.68974359 89.1283498 4.75299915 87.7855679 3.67622238 87.7214544 3.15800416 88.4043714 3.10596751 90.075645 2.74576885 90.0614776 2.56555017 90.054514 2.20535151 90.0403465 2.23136983 89.2078314 2.3020251 88.6240862 2.41707862 88.2804666 2.84148764 87.0174064 3.65139755 86.4091684 4.81219681 86.4910512 5.22705783 86.5203465 5.43472703 86.5349942 5.84982675 86.5642895zM6.81513052 76.0957773C6.81178871 76.1209905 6.81035651 76.1337172 6.80701471 76.1591705 6.71296681 76.8917934 6.4959883 77.4114251 6.15655656 77.7223876 7.15456225 78.1562944 7.69474089 79.5264506 7.55462385 80.9931373 7.38275968 82.7928781 6.15416955 84.1171703 4.66491876 83.9802988 4.2963656 83.9464411 4.11208901 83.9293922 3.74353584 83.8955345 3.78148918 83.3739819 3.8017787 83.1134457 3.84426734 82.5928535 4.17248017 82.6267112 4.33670594 82.64352 4.66491876 82.6773777 5.69276199 82.7832731 6.43798414 82.1349342 6.56139216 80.8459404 6.65520136 79.8655079 6.23747594 78.8615431 5.52638793 78.763812 5.12107492 78.7081029 4.80837761 79.0855802 4.76278586 79.5278914 4.75514746 79.6016099 4.75538616 79.676289 4.76302456 79.7519285 4.38945869 79.7041435 4.2027951 79.680131 3.82946793 79.632346 3.82182952 79.6313855 3.84020944 79.4455283 3.88054978 79.0649294 3.97961038 78.1272392 4.41309001 77.4815417 5.16809887 77.147287 5.54548395 76.9799195 5.6982521 76.6783219 5.76795257 76.1308357 5.77821668 76.0506337 5.78322938 76.0102927 5.79373219 75.9300907 6.202387 75.9963654 6.40647571 76.0295027 6.81513052 76.0957773zM9.13314853 81.3357964C9.09113729 81.7795484 9.07108647 82.0014244 9.03265573 82.4458967 8.68009548 82.4074766 8.503696 82.3882666 8.15113575 82.3498465 8.18980519 81.9020124 8.21009471 81.6782154 8.25234465 81.2311017 8.6046662 81.2728836 8.78082698 81.2937745 9.13314853 81.3357964zM9.3007161 79.6690852C9.25393085 80.1082748 9.23149303 80.3282298 9.18804959 80.7681397 8.83596674 80.7244369 8.65980596 80.7025854 8.30772311 80.6588826 8.35140525 80.2156109 8.37408177 79.993975 8.42110572 79.5514237 8.77294987 79.5982482 8.94887195 79.6217805 9.3007161 79.6690852z"/>
        <path d="M5.84911065 70.5649662C6.36398706 70.6723023 6.74757835 70.9539696 7.00585201 71.3933993 7.26054516 71.8268258 7.34409024 72.3615854 7.25028105 72.98255 7.05168245 74.3001187 6.95978286 74.960704 6.79102179 76.2849962 6.38236698 76.219442 6.17803958 76.1865448 5.76914607 76.1209905 5.83884654 75.5735043 5.87512898 75.3000014 5.94984215 74.7534757 5.71543852 74.8156682 5.47315777 74.820951 5.22180642 74.7779685 4.16340956 74.5966737 3.5998383 73.6719503 3.79366289 72.3831967 3.89129129 71.7341374 4.13118503 71.2361171 4.49377069 70.9013821 4.85349195 70.5697687 5.31131901 70.4528276 5.84911065 70.5649662zM5.67533688 71.8378716C5.07596058 71.7197299 4.73629014 71.9370435 4.65417725 72.4799673 4.64868715 72.5167065 4.64582275 72.5351961 4.64033264 72.5719353 4.6016632 72.82959 4.66300916 73.0521864 4.83153153 73.23132 4.97140987 73.3801978 5.16213136 73.4803302 5.38269038 73.5206713 5.63356433 73.5662951 5.84051744 73.5379603 6.02002002 73.4313446 6.22434742 73.3100812 6.34823285 73.1095764 6.39048279 72.8283894 6.43010703 72.5654519 6.37902518 72.3382932 6.22816663 72.1526762 6.09258489 71.9857889 5.91045661 71.8842158 5.67533688 71.8378716zM3.299076 71.7336571C3.22794333 72.1954185 3.19309309 72.4264193 3.12554093 72.8891411 2.77584508 72.8247875 2.6011165 72.7926107 2.25142065 72.728257 2.31945022 72.2621734 2.35453915 72.0294918 2.42614923 71.5643686 2.77536768 71.632084 2.94985755 71.6659417 3.299076 71.7336571zM9.16990837 62.7606467C9.05771926 63.258667 9.0025795 63.5081574 8.89468699 64.0073784 8.74168014 64.7157487 8.33207053 65.1311658 7.65774236 65.2586725 7.9045584 65.558109 7.97473627 66.0261137 7.85395395 66.6429961 7.64389774 67.7156368 6.73516594 68.2261437 5.69395549 67.9862583 4.56967737 67.7271628 3.96910757 66.8648721 4.20828521 65.6471956 4.2006468 65.6452746 4.35532456 64.8221243 4.70502041 63.1875899 5.64860245 63.4418828 6.12051282 63.5691493 7.06433356 63.8234423 7.55868176 63.9567119 7.89238469 63.7249908 8.02629553 63.1184337 8.08286748 62.8614994 8.11151151 62.7330323 8.16951567 62.4765782 8.56957727 62.5901576 8.76960807 62.6470673 9.16990837 62.7606467zM3.55448525 65.2032035C3.46330176 65.663284 3.41842612 65.8935644 3.33082313 66.3548455 2.98136598 66.2710417 2.80663741 66.2292598 2.45694156 66.145456 2.54526065 65.6810533 2.59037499 65.4488519 2.68227458 64.9854096 3.03101563 65.0723351 3.20550551 65.1160379 3.55448525 65.2032035zM6.19212289 64.9661996C5.7956418 64.8641463 5.5975206 64.8129995 5.2012782 64.7109462 5.13253253 65.0476022 5.0986371 65.2159301 5.03156233 65.5530664 4.92796643 66.0750993 5.32874413 66.5755208 5.91618542 66.717435 6.44323554 66.8449417 6.94880265 66.5896882 7.04881805 66.0856648 7.15408485 65.5545071 6.80796951 65.1246824 6.19212289 64.9661996zM3.91038731 63.4620533C3.81371371 63.9206931 3.76645107 64.1502531 3.67335797 64.6098533 3.32485562 64.5210069 3.15060445 64.4765837 2.8021021 64.3874971 2.8959113 63.9245351 2.94365134 63.6932942 3.04080234 63.2312927 3.38858859 63.3235009 3.56260106 63.3698451 3.91038731 63.4620533z"/>
        <path d="M10.5300223,57.2392005 C10.4543544,57.5218282 10.4168784,57.6632622 10.3428813,57.94613 C10.1208901,58.793533 9.84948795,59.4920581 9.51292061,60.0508302 C9.54753215,60.7243823 9.46207746,61.4805376 9.26634327,62.3363449 C9.19282359,62.6576329 9.15677986,62.8182768 9.08516979,63.140045 C8.68463078,63.0276663 8.48436128,62.9714769 8.08382228,62.8593383 C8.15614846,62.5346886 8.19266959,62.3726039 8.26666667,62.0486745 C8.35617926,61.6570298 8.39007469,61.410661 8.37575268,61.3018842 C7.92126742,61.5765878 7.46582737,61.6558292 7.01826442,61.5261614 C6.83183953,61.4721332 6.64613075,61.379925 6.47641488,61.2536189 C5.81975052,60.7541579 5.54309694,59.8520063 5.77726188,58.8970271 C6.01596212,57.9237983 6.66283976,57.3172413 7.45222145,57.2744989 C7.65559406,57.263213 7.85729576,57.2908275 8.04204974,57.3515792 C8.48555479,57.4973354 8.84074074,57.8267876 9.10593671,58.3238475 C9.17014707,58.2297183 9.25345345,57.9984774 9.35275275,57.6195593 C9.42746593,57.3340501 9.46541927,57.1914155 9.54156464,56.9063865 C9.93685224,57.0391759 10.134496,57.1059308 10.5300223,57.2392005 Z M5.05972896,58.9897155 C4.94944945,59.4435528 4.8950258,59.6709516 4.78832679,60.1259895 C4.44579195,60.0246565 4.27440517,59.97399 3.93163163,59.8726571 C4.03928544,59.4142575 4.09394779,59.1854178 4.20518211,58.7282188 C4.54700085,58.8326734 4.71791022,58.8850208 5.05972896,58.9897155 Z M8.4024871,59.2387257 C8.28074998,58.8271506 8.04228844,58.567815 7.67922538,58.4523146 C7.21232771,58.303917 6.73516594,58.5416413 6.58693309,59.1465175 C6.51389081,59.4445133 6.54229614,59.7216181 6.67191037,59.9482966 C6.78600909,60.1478409 6.98054978,60.2923965 7.21113421,60.3615526 C7.57586818,60.4710499 7.8988296,60.3853251 8.19099869,60.1014967 C8.31464541,59.9862364 8.42373142,59.8668941 8.51777932,59.7429893 C8.49295449,59.5830657 8.45380765,59.4178593 8.4024871,59.2387257 Z M5.49034419,57.2634532 C5.37481327,57.7156095 5.31776392,57.9420479 5.20557481,58.3951647 C4.86423346,58.2887891 4.69356279,58.2354813 4.35198275,58.1291057 C4.46488796,57.6726271 4.52241472,57.4445078 4.63890044,56.9889897 C4.97952568,57.0987271 5.14971895,57.1537158 5.49034419,57.2634532 Z"/>
        <path d="M11.9245091,57.0223671 C11.8082621,57.4495504 11.7507354,57.6632622 11.6375914,58.091406 C11.2950566,57.9773463 11.1236698,57.9204366 10.7808963,57.806377 C10.8947563,57.3748714 10.9527605,57.1592387 11.0699623,56.7289338 C11.4120197,56.8463551 11.5826904,56.9051859 11.9245091,57.0223671 Z M11.5626396,53.5756054 C11.1017094,55.1306583 10.8821052,55.912507 10.4648572,57.483168 C10.0690922,57.3508589 9.87144837,57.2845842 9.47568338,57.1520349 C9.56185416,56.8281056 9.60529761,56.666261 9.69313929,56.3428119 C9.80532841,55.929796 9.62630323,55.6462078 9.15558636,55.4819619 C8.4993994,55.2531223 8.17142527,55.1388226 7.51523832,54.9102231 C7.65487795,54.404999 7.72601063,54.1528672 7.87018557,53.649324 C8.50966351,53.8800846 8.82928313,53.9953448 9.46876107,54.2261055 C9.74016324,54.3240767 9.96955417,54.4551852 10.1693463,54.6331182 C10.3319011,54.0628201 10.4147301,53.7780312 10.5832525,53.2098943 C10.9751983,53.3561307 11.1709325,53.4291289 11.5626396,53.5756054 Z M12.3751752,55.4068026 C12.2539155,55.8320649 12.1940017,56.0450563 12.0758451,56.4717593 C11.7345037,56.3526571 11.5638331,56.2931059 11.2227304,56.1740037 C11.3418418,55.744179 11.4019943,55.5295068 11.5244475,55.1008827 C11.8645954,55.2233467 12.0347886,55.2845788 12.3751752,55.4068026 Z"/>
        <path d="M11.4604759 48.0051736C11.9505275 48.2128822 12.2839917 48.5656266 12.4694618 49.048519 12.6523062 49.524928 12.650874 50.0668913 12.4615847 50.6580804 12.0677293 51.8887237 11.8777239 52.5068067 11.5115577 53.7480156 11.1196119 53.6022594 10.923639 53.5295013 10.5316932 53.3837451 10.6787326 52.8850044 10.7534458 52.6359943 10.9050204 52.1389344 10.6646493 52.153342 10.4252329 52.1105996 10.1848618 52.0183914 9.17157927 51.6303486 8.76125356 50.6112559 9.15343805 49.3839744 9.35084315 48.7658913 9.66497266 48.3240603 10.0741049 48.067126 10.4798953 47.8125929 10.9489412 47.7883403 11.4604759 48.0051736zM8.51109571 49.4757023C8.37145607 49.9160925 8.3024717 50.1365277 8.16617387 50.5783587 7.83127743 50.4482107 7.66394856 50.3831366 7.32929083 50.2529886 7.46654347 49.808036 7.53600524 49.5859199 7.67659968 49.142168 8.01030261 49.2754376 8.17715408 49.3421925 8.51109571 49.4757023zM11.0904905 49.2214094C10.5190421 48.9863265 10.1507277 49.1325629 9.98530839 49.6495532 9.97408947 49.6846115 9.96859937 49.7021407 9.95738046 49.737199 9.87908678 49.9826073 9.9046277 50.2131278 10.0425964 50.4227574 10.1571726 50.5968484 10.3290367 50.7329995 10.539809 50.816083 10.7797028 50.9106924 10.9878494 50.9238993 11.1809579 50.8547432 11.4010395 50.7762221 11.5542851 50.603812 11.6399784 50.3363122 11.719943 50.0861014 11.7053823 49.8526994 11.5857935 49.6404284 11.4781397 49.4492885 11.31463 49.3136176 11.0904905 49.2214094zM9.05294525 47.801307C8.90805421 48.2397762 8.83644414 48.459251 8.6951336 48.8989208 8.36190806 48.7637301 8.1952953 48.6962549 7.86206976 48.5613043 8.0045738 48.1182727 8.07666128 47.8971171 8.22250712 47.4555263 8.55477785 47.5938386 8.72091322 47.6629947 9.05294525 47.801307zM15.3746824 42.4407449C14.5306383 44.6049962 14.1305767 45.6975674 13.3753292 47.900719 12.990067 47.734312 12.7974359 47.6509885 12.4121737 47.4845815 12.8389697 46.2395307 13.0595288 45.6197667 13.5147301 44.3867222 12.5183953 43.9232799 11.829029 44.369193 11.2881343 45.9115192 10.9527605 45.7633618 10.7849542 45.689163 10.4495803 45.5410055 10.7190729 44.772844 10.9575345 44.2532124 11.1671133 43.9746668 11.9524371 42.9378048 12.8816971 42.6854328 13.9515516 43.1969002 14.1377377 42.7063238 14.2317856 42.4613957 14.4222684 41.9729804 14.803234 42.1597981 14.9937168 42.253447 15.3746824 42.4407449z"/>
        <path d="M14.9025333 39.5467522C15.2734735 39.7383723 15.5281666 40.0262828 15.6766382 40.390073 15.8482636 40.8105328 15.8384769 41.2648503 15.6439362 41.7561471 15.4696851 42.196057 15.3835143 42.4162521 15.2128436 42.857843 14.8340263 42.6734266 14.644737 42.5812184 14.2659198 42.396802 14.4000693 42.0493403 14.4678602 41.8757296 14.6043967 41.5292285 14.760268 41.1337417 14.6091707 40.8158155 14.1520598 40.5860154 12.9936475 40.0032308 12.4145607 39.7117184 11.2563872 39.1289338 11.4504505 38.6431598 11.5483175 38.4006331 11.7466774 37.9170203 13.0089243 38.568961 13.6400477 38.8948114 14.9025333 39.5467522zM17.0897436 38.2467126C16.8925772 38.7072733 16.7949488 38.938034 16.6018403 39.4005157 14.8025179 38.4537008 13.902618 37.9804134 12.1032956 37.0335985 12.3047586 36.5511863 12.4064449 36.3105805 12.6119658 35.8305696 14.4031724 36.7968347 15.2987757 37.2802074 17.0897436 38.2467126zM20.5919535 30.7070114C20.3663818 31.1565264 20.2544314 31.3817641 20.0329175 31.8334402 19.718788 32.4740951 19.225872 32.7555222 18.5448602 32.680603 18.7129052 33.0427123 18.670894 33.5159997 18.4097559 34.0769329 17.9555094 35.0525629 16.9591746 35.2780408 16.0103411 34.7399195 14.9860784 34.1588157 14.6079772 33.1493281 15.1245245 32.0421093 15.1176022 32.0380272 15.459421 31.2881152 16.1812505 29.8087018 17.0324555 30.3321755 17.4580581 30.5939123 18.3092631 31.1171458 18.7551552 31.3913691 19.1315854 31.2655434 19.403465 30.7173368 19.5185185 30.4851354 19.5765227 30.3693949 19.6927697 30.1379139 20.052491 30.3655529 20.2322322 30.4793724 20.5919535 30.7070114zM14.5974744 31.4209046C14.4015015 31.8389631 14.3043505 32.0485927 14.1114807 32.4685722 13.7937707 32.2848762 13.635035 32.1929081 13.317325 32.0092121 13.5113883 31.5861109 13.6092554 31.3750406 13.8068992 30.9538604 14.123177 31.140438 14.2811966 31.2338468 14.5974744 31.4209046zM17.1990683 31.96695C16.8405405 31.7517975 16.661038 31.6439812 16.3025102 31.4288287 16.1571418 31.7342684 16.0848156 31.8869882 15.941118 32.1933884 15.7186494 32.6678764 15.988142 33.2693908 16.5218757 33.5793929 17.0007084 33.8576983 17.5482867 33.7597271 17.763117 33.3015676 17.9894048 32.8189153 17.7561947 32.3014448 17.1990683 31.96695zM15.3498575 29.8411188C15.1488719 30.2565359 15.0493339 30.4647247 14.8514515 30.8818228 14.5358897 30.6933242 14.3781089 30.599195 14.0627859 30.4106965 14.2618619 29.9904768 14.3623547 29.7808473 14.5647725 29.3623085 14.8786633 29.5539286 15.035728 29.6497387 15.3498575 29.8411188z"/>
        <path d="M21.9862016 25.6382018C22.8646185 26.2464397 23.0942481 27.3697469 22.5139678 28.4651995 22.1616463 29.1303472 21.7088319 29.5071042 21.1614923 29.5858653 20.8681297 30.1566437 20.7232386 30.4428733 20.4365596 31.0174937 20.076361 30.7910553 19.8961423 30.6777161 19.5359436 30.4512777 19.7593671 30.0036837 19.8717949 29.780367 20.0992762 29.3351743 19.1435204 28.720453 18.8721183 27.6602988 19.4870101 26.4988117 20.1016632 25.3375646 21.0879726 25.0162767 21.9862016 25.6382018zM21.4226303 26.7581472C20.9015477 26.4051627 20.5086471 26.4654342 20.2582506 26.9377611 20.2413028 26.9696978 20.2327096 26.9857862 20.2157619 27.0177229 19.9997382 27.4259363 20.1656349 27.9129108 20.6043659 28.2013016 21.0562255 28.498577 21.5083237 28.4344635 21.758959 27.9614162 21.9888273 27.5277495 21.851336 27.048459 21.4226303 26.7581472zM25.9161623 21.1034313C25.671972 21.5039607 25.5507123 21.7049458 25.3101024 22.1078764 25.9407484 22.7595771 25.9483868 23.5952139 25.3504428 24.6313555 25.323947 24.6772195 25.3108185 24.7000314 25.2845615 24.7456552 24.9947794 24.5353053 24.8498883 24.4303704 24.5601063 24.2200205 24.5813506 24.1830411 24.5918534 24.1647916 24.6130977 24.1278123 24.8522754 23.7131155 24.8668361 23.3740583 24.6651344 23.1043973 24.641503 23.2078914 24.5283591 23.4321686 24.3192577 23.7940378 23.7365904 24.8028051 22.7023023 25.114488 21.8339108 24.504089 20.9523909 23.8845651 20.7757527 22.7132328 21.3851544 21.6581213 21.9716409 20.6428706 23.0293216 20.3676867 23.8798106 21.0083416 24.1125433 21.1836333 24.229029 21.2712791 24.4620005 21.4468108 24.7011781 21.0465216 24.8217217 20.8469773 25.0642412 20.4488492 25.4051051 20.7108261 25.5755371 20.8416945 25.9161623 21.1034313zM23.8229999 22.5278559C23.5730808 22.3436797 23.4482405 22.2517116 23.1985601 22.0675353 22.818788 21.7875489 22.4129976 21.881438 22.1814584 22.2826878 21.9406098 22.6997858 22.0812043 23.1123214 22.4251713 23.3591705 22.794918 23.6247493 23.2245784 23.5599154 23.4580273 23.1560243 23.603157 22.9043727 23.6761993 22.7787871 23.8229999 22.5278559z"/>
        <path d="M27.9126511,17.9311331 C27.0344729,19.2832799 26.6057673,19.966437 25.7686456,21.3461982 C25.4273042,21.0854219 25.2568723,20.9547936 24.9155309,20.6940173 C25.0921691,20.4027451 25.1809656,20.2574691 25.3595134,19.9673975 C25.5803111,19.60865 25.4922307,19.2676717 25.0881112,18.9509462 C24.0423654,18.1311577 23.5193732,17.7212634 22.4736275,16.9014749 C22.7495649,16.457963 22.8884885,16.2368074 23.1687226,15.795937 C24.1946562,16.6174064 24.707623,17.028021 25.7335566,17.8492503 C25.9655733,18.0351074 26.1434049,18.2464179 26.2851929,18.4851027 C26.5997998,17.9885231 26.7585355,17.7414339 27.0783938,17.2484562 C27.4120967,17.521479 27.5789482,17.6581104 27.9126511,17.9311331 Z"/>
        <path d="M32.0643644,11.9152684 C31.5234696,12.6534143 31.2563641,13.0248885 30.7285978,13.7726393 C30.4318934,14.1930991 30.0294448,14.4483525 29.5155232,14.5292748 C29.5157619,14.8111822 29.4656349,15.1327103 29.3479556,15.4830534 C29.2223993,15.8574091 29.0574575,16.197667 28.8552784,16.5002251 C28.4213213,17.1495245 28.2069685,17.4758551 27.7825595,18.131878 C27.4483791,17.8595757 27.2815277,17.7234245 26.9473473,17.4511222 C27.3715177,16.7953394 27.5858705,16.4692489 28.0195888,15.8199495 C28.2633018,15.4549587 28.4160699,15.0717184 28.4621391,14.6764718 C28.2578117,14.6774323 27.9961962,14.7597953 27.686602,14.9074725 C27.3161392,15.0839648 27.0051128,15.3060809 26.7673674,15.5639757 C26.4828367,15.3269718 26.3405713,15.2083498 26.0560407,14.9711058 C26.1794487,14.001479 26.4909525,13.1531155 26.9738431,12.451949 C27.5500655,11.6153517 28.3193963,11.0419319 29.2610688,10.7388935 C29.364426,10.9667726 29.4489258,11.3478518 29.5119427,11.8506747 C29.5811658,12.4039239 29.5885655,12.8666457 29.5362901,13.2486854 C29.7320243,13.2073839 29.9086625,13.0673907 30.0743205,12.8337486 C30.5462308,12.1681206 30.7846924,11.8369875 31.2668669,11.1790436 C31.5860091,11.4736776 31.7454608,11.6208745 32.0643644,11.9152684 Z M28.5736121,12.2178266 C28.2165165,12.4188117 27.9315084,12.673825 27.72002,12.9804652 C27.5135443,13.2796616 27.3634019,13.6273634 27.281289,14.0194884 C27.513783,13.8624463 27.7219296,13.7565509 27.8933164,13.6907565 C28.0647032,13.6249621 28.2940941,13.5742957 28.5764765,13.5469213 C28.6242165,13.3509789 28.6361515,13.0993274 28.6316162,12.8207818 C28.6275583,12.5727321 28.6172942,12.3647834 28.5736121,12.2178266 Z"/>
        <path d="M35.5792254,7.33871615 C35.223562,7.7805471 35.0471625,8.00242308 34.6965119,8.44833618 C34.8010626,9.060176 34.6275275,9.6614503 34.182829,10.2425541 C33.7273889,10.837345 33.2246862,11.1194925 32.6654116,11.1019633 C32.3412566,11.5370707 32.1803727,11.7553448 31.8609918,12.193814 C31.5413721,11.9003807 31.3816817,11.753664 31.0620621,11.4602306 C31.2981366,11.1363012 31.4165319,10.9749369 31.6549935,10.6529286 C30.8021175,9.8571526 30.708547,8.75833822 31.5086702,7.71259158 C32.3142835,6.6598813 33.3144375,6.53549628 34.1608686,7.37953749 C34.4205744,7.0512859 34.5511435,6.88776042 34.813475,6.56191009 C35.1194887,6.87287264 35.2727343,7.02823385 35.5792254,7.33871615 Z M33.3767383,8.34124019 C32.9177177,7.89268572 32.5190883,7.87875844 32.1956495,8.30113923 C32.1736891,8.32971417 32.1627089,8.3441217 32.1409871,8.37269664 C31.8617079,8.73792755 31.9593363,9.25107579 32.3412566,9.61462583 C32.7348733,9.98922164 33.1984292,10.0163558 33.5166166,9.6002183 C33.8243012,9.19824818 33.7660584,8.72159902 33.3767383,8.34124019 Z"/>
        <path d="M35.967352 4.40126066C36.2650112 4.71462446 36.4235081 5.08105601 36.4583584 5.482786 36.4986987 5.94766901 36.3554786 6.38181595 36.0255948 6.78714783 35.7300839 7.14997749 35.5832833 7.33223276 35.2913529 7.69794393 34.983907 7.38866226 34.830184 7.23378129 34.5227381 6.92449962 34.7526065 6.63658913 34.8681374 6.49323419 35.0999153 6.20700457 35.3646339 5.88043386 35.3137907 5.52168634 34.9452375 5.14132751 34.0107261 4.17698342 33.5435897 3.69481138 32.6090783 2.73070742 32.9370524 2.33041817 33.1017556 2.13087387 33.4335489 1.73394638 34.4470701 2.80082407 34.9538308 3.33414285 35.967352 4.40126066zM38.4410025 3.90876322C38.1163702 4.28407941 37.9550089 4.47257794 37.633957 4.85125588 36.1943559 3.31349205 35.4746747 2.54437001 34.0350735 1.00660618 34.3697313.611839825 34.5380149.415177024 34.8767306.0237724265 36.3022484 1.57762467 37.015246 2.35467085 38.4410025 3.90876322z"/>
      </g>
    </g>
    <text fill="#000" font-family="GESSTextMedium-Medium, GE SS" font-size="20" font-weight="400">
      <tspan x="62.11" y="39.22">تطوير وتنفيذ</tspan>
    </text>
    <text fill="#000" font-family="GESSTextMedium-Medium, GE SS" font-size="20" font-weight="400">
      <tspan x="45.11" y="270.22">العقبي التجارية</tspan>
    </text>
    <g fill-rule="nonzero" transform="translate(533 105)">
      <path fill="#4A90E2" d="M143.526956,110.966107 C143.693231,110.988462 143.860945,111 144.027939,111 C144.585067,111 145.135716,110.878851 145.644617,110.646649 L225.725579,74.0524693 C227.384725,73.297452 228.290957,71.4910353 227.915939,69.7019257 C227.536603,67.918585 225.972471,66.6349835 224.15065,66.6140709 C223.497789,66.6061385 158.657215,65.223743 129.88453,7.61527657 C127.167274,2.17871958 120.478864,-1.06850368 114.698846,0.321103072 L47.8565005,16.4555408 C44.6303435,17.2350763 42.0606468,19.2946077 40.8096292,22.1026661 C39.5852443,24.8479868 39.7565574,28.0404046 41.2760616,30.8636067 C52.8864839,52.4634464 86.0960346,103.497422 143.526956,110.966107 Z M47.9025679,25.2792192 C48.1645762,24.6951084 48.8095197,24.235031 49.6754427,24.0302317 L116.519948,7.89651509 C116.850337,7.81502803 117.203041,7.77464507 117.563662,7.77464507 C119.711554,7.77464507 121.966697,9.17578981 122.930513,11.1040765 C145.235049,55.7582639 187.581059,68.9238324 209.741634,72.799155 L143.432662,103.101524 C90.2284236,95.5866867 59.0775094,47.5763862 48.1091514,27.1743342 C47.8529015,26.6846907 47.6045695,25.956355 47.9025679,25.2792192 Z"/>
      <rect width="142" height="8" y="143" fill="#FFDA44"/>
      <polygon fill="#FFDA44" points="224 115.293 224 107 144 143.701 144 152"/>
      <path fill="#FFDA44" d="M224,104 L203.131506,104 L143.251889,132.413919 L140.642155,132.425393 C104.435522,132.425393 75.2732964,126.057646 53.4714145,118.577695 L0,140 L141.86407,140 L224,104 Z"/>
      <path fill="#4A90E2" d="M15.5103273,92.617844 C31.0814619,102.472396 74.6386329,125.387554 142.695765,124.99502 L222,87.0826105 C222,87.0826105 217.725769,87.1057433 210.722584,86.8997172 L142.954153,117.862181 L141.846982,117.717601 C103.09814,112.677553 75.4260672,87.9255101 58.0476589,66 L16.1880549,84.9825905 C12.2682054,86.7630894 11.8705186,90.3161353 15.5103273,92.617844 Z"/>
    </g>
    <text fill="#000" font-family="GESSTextMedium-Medium, GE SS" font-size="20" font-weight="400">
      <tspan x="389.74" y="270.22">المعلومة بين يديك</tspan>
    </text>
  </g>
</svg>
